<svg xmlns="http://www.w3.org/2000/svg" viewBox="0 0 1200 700" role="img" aria-labelledby="title desc"><title id="title">Sigran Com Numbers visual</title><desc id="desc">Local generated communications artwork for Sigran Com.</desc><defs><linearGradient id="vg" x1="0" y1="0" x2="1" y2="1"><stop stop-color="#0d141d"/><stop offset="1" stop-color="#05070a"/></linearGradient></defs><rect width="1200" height="700" fill="url(#vg)"/><circle cx="1050" cy="90" r="240" fill="#37d5ff" opacity=".08"/><circle cx="140" cy="630" r="220" fill="#7367ff" opacity=".06"/><g><rect x="190" y="165" width="170" height="95" rx="18" fill="#37d5ff" opacity=".16" stroke="#f5f8fb" stroke-opacity=".13"/><text x="275" y="220" text-anchor="middle" fill="#37d5ff" font-family="ui-monospace,monospace" font-size="20">+1 •••• 1200</text><rect x="400" y="165" width="170" height="95" rx="18" fill="#0d141d" opacity="1" stroke="#f5f8fb" stroke-opacity=".13"/><text x="485" y="220" text-anchor="middle" fill="#f5f8fb" font-family="ui-monospace,monospace" font-size="20">+1 •••• 1237</text><rect x="610" y="165" width="170" height="95" rx="18" fill="#0d141d" opacity="1" stroke="#f5f8fb" stroke-opacity=".13"/><text x="695" y="220" text-anchor="middle" fill="#f5f8fb" font-family="ui-monospace,monospace" font-size="20">+1 •••• 1274</text><rect x="820" y="165" width="170" height="95" rx="18" fill="#37d5ff" opacity=".16" stroke="#f5f8fb" stroke-opacity=".13"/><text x="905" y="220" text-anchor="middle" fill="#37d5ff" font-family="ui-monospace,monospace" font-size="20">+1 •••• 1311</text><rect x="190" y="310" width="170" height="95" rx="18" fill="#0d141d" opacity="1" stroke="#f5f8fb" stroke-opacity=".13"/><text x="275" y="365" text-anchor="middle" fill="#f5f8fb" font-family="ui-monospace,monospace" font-size="20">+1 •••• 1348</text><rect x="400" y="310" width="170" height="95" rx="18" fill="#0d141d" opacity="1" stroke="#f5f8fb" stroke-opacity=".13"/><text x="485" y="365" text-anchor="middle" fill="#f5f8fb" font-family="ui-monospace,monospace" font-size="20">+1 •••• 1385</text><rect x="610" y="310" width="170" height="95" rx="18" fill="#37d5ff" opacity=".16" stroke="#f5f8fb" stroke-opacity=".13"/><text x="695" y="365" text-anchor="middle" fill="#37d5ff" font-family="ui-monospace,monospace" font-size="20">+1 •••• 1422</text><rect x="820" y="310" width="170" height="95" rx="18" fill="#0d141d" opacity="1" stroke="#f5f8fb" stroke-opacity=".13"/><text x="905" y="365" text-anchor="middle" fill="#f5f8fb" font-family="ui-monospace,monospace" font-size="20">+1 •••• 1459</text><rect x="190" y="455" width="170" height="95" rx="18" fill="#0d141d" opacity="1" stroke="#f5f8fb" stroke-opacity=".13"/><text x="275" y="510" text-anchor="middle" fill="#f5f8fb" font-family="ui-monospace,monospace" font-size="20">+1 •••• 1496</text><rect x="400" y="455" width="170" height="95" rx="18" fill="#37d5ff" opacity=".16" stroke="#f5f8fb" stroke-opacity=".13"/><text x="485" y="510" text-anchor="middle" fill="#37d5ff" font-family="ui-monospace,monospace" font-size="20">+1 •••• 1533</text><rect x="610" y="455" width="170" height="95" rx="18" fill="#0d141d" opacity="1" stroke="#f5f8fb" stroke-opacity=".13"/><text x="695" y="510" text-anchor="middle" fill="#f5f8fb" font-family="ui-monospace,monospace" font-size="20">+1 •••• 1570</text><rect x="820" y="455" width="170" height="95" rx="18" fill="#0d141d" opacity="1" stroke="#f5f8fb" stroke-opacity=".13"/><text x="905" y="510" text-anchor="middle" fill="#f5f8fb" font-family="ui-monospace,monospace" font-size="20">+1 •••• 1607</text></g><text x="70" y="72" fill="#8a98aa" font-family="ui-monospace,monospace" font-size="18" font-weight="700" letter-spacing="4">NUMBERS / 07</text><text x="70" y="646" fill="#f5f8fb" font-family="Arial" font-size="28" font-weight="800">Sigran Com</text><text x="1130" y="646" text-anchor="end" fill="#8a98aa" font-family="ui-monospace,monospace" font-size="15">VOICE PLATFORM VISUAL SYSTEM</text></svg>